<?xml version="1.0" encoding="UTF-8"?>
<svg xmlns="http://www.w3.org/2000/svg" xml:space="preserve" width="421.56" height="418.18" version="1.1" style="shape-rendering:geometricPrecision; text-rendering:geometricPrecision; image-rendering:optimizeQuality; fill-rule:evenodd; clip-rule:evenodd"
viewBox="0 0 421.56 418.18">
 <defs>
  <style type="text/css">
   <![CDATA[
    .str2 {stroke:#00A859;stroke-width:4.03;stroke-miterlimit:2.61313}
    .str1 {stroke:#091E2F;stroke-width:3.02;stroke-miterlimit:2.61313}
    .str0 {stroke:#091E2F;stroke-width:1.01;stroke-miterlimit:2.61313}
    .fil1 {fill:none}
    .fil2 {fill:#00A859}
    .fil0 {fill:#091E2F}
   ]]>
  </style>
 </defs>
 <g id="Layer_x0020_1">
  <g>
   <path class="fil0 str0" d="M160 358.01c16.2,0 29.33,13.13 29.33,29.33 0,16.2 -13.13,29.33 -29.33,29.33 -16.2,0 -29.33,-13.13 -29.33,-29.33 0,-6.66 2.22,-12.81 5.97,-17.73l4.42 2.81 -4.42 -2.81 0.26 -0.34c5.23,-6.68 13.29,-11.03 22.38,-11.25l0.72 7.09 -0.72 -7.09 0.02 0c0.23,-0.01 0.47,-0.01 0.7,-0.01zm-129.16 -242.36c16.2,0 29.33,13.13 29.33,29.33 0,7.71 -2.98,14.72 -7.84,19.95l-3.82 -2.29 3.82 2.29c-0.67,0.72 -1.38,1.41 -2.12,2.06 -5.17,4.55 -11.95,7.31 -19.37,7.31 -16.2,0 -29.33,-13.13 -29.33,-29.33 0,-16.2 13.13,-29.33 29.33,-29.33zm32.13 176.51c4.21,0 8.21,0.89 11.82,2.48 1.74,0.77 3.39,1.7 4.93,2.77l-3.58 4.21 3.58 -4.21c7.6,5.3 12.58,14.11 12.58,24.08 0,6.18 -1.91,11.91 -5.17,16.64l-0.02 0.03 -5.44 -3.45 5.44 3.45c-5.29,7.65 -14.13,12.66 -24.13,12.66 -16.2,0 -29.33,-13.13 -29.33,-29.33 0,-16.2 13.13,-29.33 29.33,-29.33zm61.37 -274.32c16.2,0 29.33,13.13 29.33,29.33 0,16.2 -13.13,29.33 -29.33,29.33 -16.2,0 -29.33,-13.13 -29.33,-29.33 0,-16.2 13.13,-29.33 29.33,-29.33z"/>
   <path class="fil1 str1" d="M148.19 246.44l11.39 111.57c0.14,-0 0.28,-0 0.42,-0 16.2,0 29.33,13.13 29.33,29.33 0,16.2 -13.13,29.33 -29.33,29.33 -16.2,0 -29.33,-13.13 -29.33,-29.33 0,-6.66 2.22,-12.81 5.97,-17.73l0.26 -0.34c0.43,-0.55 0.88,-1.09 1.35,-1.61l-49.81 -31.62c-0.41,0.71 -0.85,1.41 -1.31,2.09 -5.58,7.97 -14.4,12.69 -24.15,12.69 -16.2,0 -29.33,-13.13 -29.33,-29.33 0,-16.2 13.13,-29.33 29.33,-29.33 4.21,0 8.21,0.89 11.82,2.48 1.14,0.5 2.24,1.07 3.3,1.71l47.37 -55.62c-0.27,-0.21 -0.53,-0.42 -0.79,-0.63 -6.49,-5.38 -10.62,-13.5 -10.62,-22.59 0,-15.69 12.4,-28.71 28.21,-29.31 0.37,-0.01 0.75,-0.02 1.12,-0.02 16.2,0 29.33,13.13 29.33,29.33 0,14.44 -10.43,26.44 -24.17,28.88l-0.34 0.06zm-95.86 -81.51c-0.67,0.72 -1.38,1.41 -2.12,2.06 -5.17,4.55 -11.95,7.31 -19.37,7.31 -16.2,0 -29.33,-13.13 -29.33,-29.33 0,-16.2 13.13,-29.33 29.33,-29.33 16.2,0 29.33,13.13 29.33,29.33 0,7.43 -2.79,14.52 -7.84,19.95zm72.01 -147.1c16.2,0 29.33,13.13 29.33,29.33 0,14.68 -10.87,27.11 -25.38,29.07 -17.56,2.35 -33.27,-11.24 -33.27,-29.07 0,-16.2 13.13,-29.33 29.33,-29.33zm3.88 58.4l14.03 111.96m-87.1 -26.81l63.34 40.59"/>
   <polygon class="fil0 str0" points="184.73,254.11 226.38,215.63 393.89,383.37 311.64,383.37 "/>
  </g>
  <polygon class="fil2 str2" points="342.57,15.58 358.79,34.09 289.77,108.59 254.59,79.46 175.62,165.9 208.17,192.28 262.22,130.49 296.32,157.24 384.72,60.84 402.15,78.56 418.95,2.49 "/>
 </g>
</svg>
